<?xml version="1.0" encoding="UTF-8"?>
<svg width="923px" height="922px" viewBox="0 0 923 922" version="1.1" xmlns="http://www.w3.org/2000/svg" xmlns:xlink="http://www.w3.org/1999/xlink">
    <!-- Generator: Sketch 51.2 (57519) - http://www.bohemiancoding.com/sketch -->
    <title>Shape</title>
    <desc>Created with Sketch.</desc>
    <defs></defs>
    <g id="Page-1" stroke="none" stroke-width="1" fill="none" fill-rule="evenodd">
        <g id="关--闭" fill="#FFFFFF" fill-rule="nonzero">
            <path d="M533.168,460.776 L908.464,85.48 C927.408,66.536 927.408,35.304 908.464,16.36 L906.416,14.312 C887.472,-4.632 856.24,-4.632 837.296,14.312 L462,390.12 L86.704,14.312 C67.76,-4.632 36.528,-4.632 17.584,14.312 L15.536,16.36 C-3.92,35.304 -3.92,66.536 15.536,85.48 L390.832,460.776 L15.536,836.072 C-3.408,855.016 -3.408,886.248 15.536,905.192 L17.584,907.24 C36.528,926.184 67.76,926.184 86.704,907.24 L462,531.944 L837.296,907.24 C856.24,926.184 887.472,926.184 906.416,907.24 L908.464,905.192 C927.408,886.248 927.408,855.016 908.464,836.072 L533.168,460.776 Z" id="Shape"></path>
        </g>
    </g>
</svg>